<?xml version="1.0" encoding="UTF-8"?>
<svg id="Layer_2" data-name="Layer 2" xmlns="http://www.w3.org/2000/svg" viewBox="0 0 808.22 317.14">
  <defs>
    <style>
      .cls-1 {
        fill: #231f20;
      }
    </style>
  </defs>
  <g id="Layer_3" data-name="Layer 3">
    <g>
      <g>
        <polygon class="cls-1" points="279.48 30.96 166.54 96.16 0 0 0 39.13 166.54 135.29 279.48 70.09 279.48 203.45 333.03 172.53 333.03 .04 279.48 30.96"/>
        <polygon class="cls-1" points="53.67 212.87 53.67 182.69 166.57 247.88 166.54 208.78 53.67 143.62 53.67 117.51 166.54 182.68 166.54 144.24 53.67 79.07 53.67 79.07 0 48.09 0 220.98 53.67 251.97 166.54 317.14 333.03 221.02 333.03 181.94 166.54 278.06 53.67 212.87"/>
      </g>
      <g>
        <path class="cls-1" d="M362.19,55.56V.52h11.8l3.23,22.53,2.2,27.35h1.86l2.17-27.35,3.27-22.53h11.76v55.04h-5.54v-17.16l.69-32.96h-2.89l-3.58,34.33-2.65,15.55h-8.43l-2.51-15.55-3.58-34.33h-2.89l.69,32.96v17.16h-5.61Z"/>
        <path class="cls-1" d="M406.84,55.56V.52h18.27v4.92h-12.8v19.99h12.11v4.88h-12.11v20.33h12.8v4.92h-18.27Z"/>
        <path class="cls-1" d="M435.91,55.56V5.44h-8.36V.52h22.15v4.92h-8.36v50.12h-5.43Z"/>
        <path class="cls-1" d="M450.15,55.56l5.92-55.04h11.25l5.88,55.04h-5.57l-1.41-15.58h-9.08l-1.38,15.58h-5.61ZM457.65,35.06h8.12l-1.07-11.63-1.51-17.99h-2.99l-1.51,18.03-1.03,11.59Z"/>
        <path class="cls-1" d="M479.22,55.56V.52h5.47v50.12h12.76v4.92h-18.23Z"/>
        <path class="cls-1" d="M502.03,55.56V.52h5.47v50.12h12.76v4.92h-18.23Z"/>
        <path class="cls-1" d="M524.83,55.56V.52h10.32c3.65,0,6.29.71,7.93,2.12,1.64,1.41,2.47,3.73,2.49,6.97,0,2.32,0,4.3.02,5.95.01,1.65-.02,3.28-.09,4.88-.09,1.93-.51,3.45-1.24,4.57-.73,1.12-1.94,1.9-3.61,2.34v1.03c1.74.46,3,1.26,3.77,2.41.77,1.15,1.21,2.69,1.32,4.64.07,2.02.09,3.85.07,5.5-.02,1.65-.05,3.49-.07,5.5-.12,3.23-.98,5.56-2.58,6.98-1.61,1.42-4.22,2.13-7.84,2.13h-10.49ZM530.3,25.36h5.37c1.63,0,2.77-.38,3.42-1.15.65-.77,1-2.06,1.05-3.87.05-1.97.06-3.79.05-5.45-.01-1.66-.03-3.48-.05-5.45-.02-1.47-.4-2.5-1.13-3.1-.73-.6-2.02-.9-3.85-.9h-4.85v19.92ZM530.3,50.57h5.02c1.83,0,3.11-.32,3.84-.96.72-.64,1.1-1.72,1.12-3.23.07-1.95.1-3.74.1-5.38s-.03-3.42-.1-5.35c-.02-2.02-.38-3.41-1.08-4.16-.7-.76-1.93-1.13-3.7-1.13h-5.19v20.23Z"/>
        <path class="cls-1" d="M550.39,55.56l5.92-55.04h11.25l5.88,55.04h-5.57l-1.41-15.58h-9.08l-1.38,15.58h-5.61ZM557.89,35.06h8.12l-1.07-11.63-1.51-17.99h-2.99l-1.51,18.03-1.03,11.59Z"/>
        <path class="cls-1" d="M589.54,56.04c-3.74,0-6.42-.73-8.05-2.2-1.63-1.47-2.46-3.85-2.51-7.15-.09-7.75-.14-15.45-.14-23.08s.05-15.33.14-23.08h5.47c-.07,5.16-.11,10.33-.14,15.52-.02,5.18-.02,10.36.02,15.53s.05,10.36.05,15.56c0,1.49.38,2.55,1.15,3.18s2.1.95,4.01.95,3.19-.31,3.94-.95c.75-.63,1.12-1.69,1.12-3.18.05-5.2.08-10.39.1-15.56.02-5.17.03-10.35.03-15.53s-.05-10.36-.14-15.52h5.47c.09,7.75.14,15.45.15,23.08.01,7.64-.04,15.33-.15,23.08-.05,3.3-.88,5.69-2.49,7.15-1.62,1.47-4.29,2.2-8.03,2.2Z"/>
        <path class="cls-1" d="M362.19,138.12v-55.04h11.8l3.23,22.53,2.2,27.35h1.86l2.17-27.35,3.27-22.53h11.76v55.04h-5.54v-17.16l.69-32.96h-2.89l-3.58,34.33-2.65,15.55h-8.43l-2.51-15.55-3.58-34.33h-2.89l.69,32.96v17.16h-5.61Z"/>
        <path class="cls-1" d="M406.84,138.12v-55.04h18.27v4.92h-12.8v19.99h12.11v4.88h-12.11v20.33h12.8v4.92h-18.27Z"/>
        <path class="cls-1" d="M431.2,138.12v-55.04h5.47v55.04h-5.47Z"/>
        <path class="cls-1" d="M454.73,138.6c-3.72,0-6.39-.73-8.03-2.2-1.64-1.47-2.52-3.9-2.63-7.29-.05-1.33-.07-2.56-.09-3.7-.01-1.14,0-2.28.03-3.44s.07-2.41.12-3.77h5.26c-.09,2.04-.14,4-.15,5.86-.01,1.87.04,3.78.15,5.73.07,1.54.5,2.61,1.29,3.22s2.12.91,3.97.91,3.07-.3,3.84-.91c.77-.61,1.2-1.68,1.29-3.22.09-1.01.15-2.09.17-3.25s.02-2.32-.02-3.47-.09-2.22-.16-3.18c-.05-1.86-.41-3.25-1.1-4.16-.69-.92-1.81-1.57-3.37-1.96l-3.85-.93c-1.88-.46-3.35-1.13-4.42-2.01-1.07-.88-1.83-2.08-2.29-3.58-.46-1.5-.72-3.4-.79-5.69-.02-1.47-.02-3.01,0-4.63s.05-3.26.07-4.94c.05-2.25.44-4.06,1.17-5.44.73-1.38,1.87-2.38,3.42-3.01,1.55-.63,3.56-.94,6.04-.94,3.6,0,6.2.73,7.79,2.18s2.45,3.88,2.56,7.28c.05,1.44.06,3.02.05,4.73-.01,1.71-.04,3.5-.09,5.38h-5.3c.07-2.11.11-4.02.14-5.73.02-1.71,0-3.4-.07-5.07-.07-1.54-.49-2.61-1.25-3.22-.77-.61-2.07-.91-3.9-.91s-3.04.3-3.82.91c-.78.61-1.22,1.68-1.31,3.22-.11,1.77-.17,3.46-.15,5.09.01,1.63.06,3.33.15,5.09.05,2,.32,3.46.83,4.39.5.93,1.38,1.54,2.61,1.84l3.65.82c2.13.48,3.82,1.18,5.08,2.08,1.25.91,2.15,2.1,2.7,3.58.55,1.48.87,3.35.96,5.63.02.94.03,1.94.03,3.01s0,2.13-.02,3.2c-.01,1.07-.04,2.07-.09,3.01-.11,3.39-.98,5.82-2.6,7.29-1.62,1.47-4.25,2.2-7.9,2.2Z"/>
        <path class="cls-1" d="M477.3,138.12v-50.12h-8.36v-4.92h22.15v4.92h-8.36v50.12h-5.43Z"/>
        <path class="cls-1" d="M495.73,138.12v-55.04h18.27v4.92h-12.8v19.99h12.11v4.88h-12.11v20.33h12.8v4.92h-18.27Z"/>
        <path class="cls-1" d="M520.08,138.12v-55.04h10.36c3.44,0,5.94.69,7.5,2.06s2.39,3.66,2.48,6.85c.09,2.16.15,4.13.17,5.92.02,1.79.02,3.5,0,5.13-.02,1.63-.08,3.35-.17,5.16-.09,2.13-.49,3.85-1.2,5.14-.71,1.3-1.81,2.23-3.3,2.8l5.54,21.98h-5.74l-5.02-21.05h-5.13v21.05h-5.47ZM525.56,112.15h4.85c1.65,0,2.81-.29,3.47-.86.66-.57,1.02-1.54,1.07-2.89.07-2.09.12-4,.16-5.73.03-1.73.05-3.46.03-5.19-.01-1.73-.08-3.63-.19-5.69-.07-1.4-.43-2.38-1.08-2.94-.65-.56-1.79-.84-3.42-.84h-4.88v24.15Z"/>
        <path class="cls-1" d="M547.88,138.12v-55.04h10.32c3.65,0,6.29.71,7.93,2.12,1.64,1.41,2.47,3.73,2.49,6.97,0,2.32,0,4.3.02,5.95.01,1.65-.02,3.28-.09,4.88-.09,1.93-.51,3.45-1.24,4.57-.73,1.12-1.94,1.9-3.61,2.34v1.03c1.74.46,3,1.26,3.77,2.41.77,1.15,1.21,2.69,1.32,4.64.07,2.02.09,3.85.07,5.5-.02,1.65-.05,3.49-.07,5.5-.12,3.23-.98,5.56-2.58,6.98s-4.22,2.13-7.84,2.13h-10.49ZM553.35,107.92h5.37c1.63,0,2.77-.38,3.42-1.15.65-.77,1-2.06,1.05-3.87.05-1.97.06-3.79.05-5.45-.01-1.66-.03-3.48-.05-5.45-.02-1.47-.4-2.5-1.13-3.1-.73-.6-2.02-.9-3.85-.9h-4.85v19.92ZM553.35,133.13h5.02c1.83,0,3.11-.32,3.84-.96.72-.64,1.1-1.72,1.12-3.23.07-1.95.1-3.74.1-5.38s-.03-3.42-.1-5.35c-.02-2.02-.38-3.41-1.08-4.16-.7-.76-1.93-1.13-3.7-1.13h-5.19v20.23Z"/>
        <path class="cls-1" d="M576.23,138.12v-55.04h18.27v4.92h-12.8v19.99h12.11v4.88h-12.11v20.33h12.8v4.92h-18.27Z"/>
        <path class="cls-1" d="M605.29,138.12v-50.12h-8.36v-4.92h22.15v4.92h-8.36v50.12h-5.43Z"/>
        <path class="cls-1" d="M623.73,138.12v-55.04h10.36c3.44,0,5.94.69,7.5,2.06s2.39,3.66,2.48,6.85c.09,2.16.15,4.13.17,5.92.02,1.79.02,3.5,0,5.13-.02,1.63-.08,3.35-.17,5.16-.09,2.13-.49,3.85-1.2,5.14-.71,1.3-1.81,2.23-3.3,2.8l5.54,21.98h-5.74l-5.02-21.05h-5.13v21.05h-5.47ZM629.2,112.15h4.85c1.65,0,2.81-.29,3.47-.86.66-.57,1.02-1.54,1.07-2.89.07-2.09.12-4,.16-5.73.03-1.73.05-3.46.03-5.19-.01-1.73-.08-3.63-.19-5.69-.07-1.4-.43-2.38-1.08-2.94-.65-.56-1.79-.84-3.42-.84h-4.88v24.15Z"/>
        <path class="cls-1" d="M651.52,138.12v-55.04h5.47v55.04h-5.47Z"/>
        <path class="cls-1" d="M665.32,138.12v-55.04h18.27v4.92h-12.8v19.99h12.11v4.88h-12.11v20.33h12.8v4.92h-18.27Z"/>
        <path class="cls-1" d="M689.67,138.12v-55.04h10.32c3.65,0,6.29.71,7.93,2.12,1.64,1.41,2.47,3.73,2.49,6.97,0,2.32,0,4.3.02,5.95.01,1.65-.02,3.28-.09,4.88-.09,1.93-.51,3.45-1.24,4.57-.73,1.12-1.94,1.9-3.61,2.34v1.03c1.74.46,3,1.26,3.77,2.41.77,1.15,1.21,2.69,1.32,4.64.07,2.02.09,3.85.07,5.5s-.05,3.49-.07,5.5c-.12,3.23-.98,5.56-2.58,6.98-1.61,1.42-4.22,2.13-7.84,2.13h-10.49ZM695.14,107.92h5.37c1.63,0,2.77-.38,3.42-1.15.65-.77,1-2.06,1.05-3.87.05-1.97.06-3.79.05-5.45-.01-1.66-.03-3.48-.05-5.45-.02-1.47-.4-2.5-1.13-3.1-.73-.6-2.02-.9-3.85-.9h-4.85v19.92ZM695.14,133.13h5.02c1.83,0,3.11-.32,3.84-.96.72-.64,1.1-1.72,1.12-3.23.07-1.95.1-3.74.1-5.38s-.03-3.42-.1-5.35c-.02-2.02-.38-3.41-1.08-4.16-.7-.76-1.93-1.13-3.7-1.13h-5.19v20.23Z"/>
        <path class="cls-1" d="M362.19,220.68v-55.04h10.39c3.65,0,6.27.71,7.88,2.13s2.44,3.76,2.51,7.02c.07,4.36.11,8.51.14,12.45.02,3.95.02,7.88,0,11.8-.02,3.92-.07,8.07-.14,12.45-.07,3.28-.88,5.63-2.43,7.05-1.55,1.42-4.08,2.13-7.58,2.13h-10.77ZM367.66,215.76h5.3c1.65,0,2.82-.29,3.51-.88.69-.58,1.04-1.56,1.07-2.94.09-3.53.15-6.83.19-9.89s.05-6.04.05-8.93-.02-5.86-.05-8.91-.1-6.34-.19-9.87c-.02-1.38-.4-2.35-1.14-2.92-.73-.57-2.01-.86-3.82-.86h-4.92v45.2Z"/>
        <path class="cls-1" d="M390.92,220.68v-55.04h18.27v4.92h-12.8v19.99h12.11v4.88h-12.11v20.33h12.8v4.92h-18.27Z"/>
        <path class="cls-1" d="M415.27,220.68v-55.04h11.18l3.06,17.44,4.58,32.65h2.96l-.69-30.62-.28-19.47h5.47v55.04h-11.52l-3.34-19.75-3.92-30.44h-2.99l.62,29.62.38,20.57h-5.5Z"/>
        <path class="cls-1" d="M449.88,220.68v-55.04h11.18l3.06,17.44,4.57,32.65h2.96l-.69-30.62-.27-19.47h5.47v55.04h-11.52l-3.34-19.75-3.92-30.44h-2.99l.62,29.62.38,20.57h-5.5Z"/>
        <path class="cls-1" d="M484.48,220.68v-55.04h5.47v55.04h-5.47Z"/>
        <path class="cls-1" d="M508.01,221.16c-3.71,0-6.39-.73-8.03-2.2-1.64-1.47-2.52-3.9-2.63-7.29-.05-1.33-.08-2.56-.09-3.7-.01-1.14,0-2.28.03-3.44.03-1.16.07-2.41.12-3.77h5.26c-.09,2.04-.14,4-.16,5.86-.01,1.87.04,3.78.16,5.73.07,1.54.5,2.61,1.29,3.22.79.61,2.12.91,3.97.91s3.07-.3,3.84-.91c.77-.61,1.2-1.68,1.29-3.22.09-1.01.15-2.09.17-3.25s.02-2.32-.02-3.47-.09-2.22-.16-3.18c-.05-1.86-.41-3.25-1.1-4.16-.69-.92-1.81-1.57-3.37-1.96l-3.85-.93c-1.88-.46-3.35-1.13-4.42-2.01-1.07-.88-1.83-2.08-2.29-3.58-.46-1.5-.72-3.4-.79-5.69-.02-1.47-.02-3.01,0-4.63.02-1.62.05-3.26.07-4.94.05-2.25.44-4.06,1.17-5.44.73-1.38,1.88-2.38,3.42-3.01,1.55-.63,3.56-.94,6.04-.94,3.6,0,6.2.73,7.79,2.18s2.45,3.88,2.56,7.28c.05,1.44.06,3.02.05,4.73-.01,1.71-.04,3.5-.09,5.38h-5.3c.07-2.11.11-4.02.14-5.73.02-1.71,0-3.4-.07-5.07-.07-1.54-.49-2.61-1.25-3.22-.77-.61-2.07-.91-3.9-.91s-3.04.3-3.82.91c-.78.61-1.22,1.68-1.31,3.22-.11,1.77-.17,3.46-.16,5.09.01,1.63.06,3.33.16,5.09.05,2,.32,3.46.82,4.39.51.93,1.38,1.54,2.62,1.84l3.65.82c2.13.48,3.82,1.18,5.08,2.08,1.25.91,2.15,2.1,2.7,3.58.55,1.48.87,3.35.96,5.63.02.94.03,1.94.03,3.01s0,2.13-.02,3.2c-.01,1.07-.04,2.07-.09,3.01-.11,3.39-.98,5.82-2.6,7.29-1.62,1.47-4.25,2.2-7.9,2.2Z"/>
        <path class="cls-1" d="M540.11,220.68v-55.04h18.27v4.92h-12.8v19.99h12.11v4.88h-12.11v20.33h12.8v4.92h-18.27Z"/>
        <path class="cls-1" d="M564.46,220.68v-55.04h10.36c3.44,0,5.94.69,7.5,2.06,1.56,1.38,2.39,3.66,2.48,6.85.09,2.16.15,4.13.17,5.92s.02,3.5,0,5.13-.08,3.35-.17,5.16c-.09,2.13-.49,3.85-1.2,5.14-.71,1.3-1.81,2.23-3.3,2.8l5.54,21.98h-5.74l-5.02-21.05h-5.13v21.05h-5.47ZM569.93,194.71h4.85c1.65,0,2.81-.29,3.47-.86.66-.57,1.02-1.54,1.07-2.89.07-2.09.12-4,.16-5.73.03-1.73.05-3.46.03-5.19-.01-1.73-.08-3.63-.19-5.69-.07-1.4-.43-2.38-1.08-2.94-.65-.56-1.79-.84-3.42-.84h-4.88v24.15Z"/>
        <path class="cls-1" d="M592.26,220.68v-55.04h5.47v50.12h12.76v4.92h-18.23Z"/>
        <path class="cls-1" d="M615.06,220.68v-55.04h18.27v4.92h-12.8v19.99h12.11v4.88h-12.11v20.33h12.8v4.92h-18.27Z"/>
        <path class="cls-1" d="M639.42,220.68v-55.04h11.18l3.06,17.44,4.57,32.65h2.96l-.69-30.62-.27-19.47h5.47v55.04h-11.52l-3.34-19.75-3.92-30.44h-2.99l.62,29.62.38,20.57h-5.5Z"/>
        <path class="cls-1" d="M674.02,220.68v-55.04h10.32c3.65,0,6.29.71,7.93,2.12,1.64,1.41,2.47,3.73,2.49,6.97,0,2.32,0,4.3.02,5.95.01,1.65-.02,3.28-.09,4.88-.09,1.93-.51,3.45-1.24,4.57-.73,1.12-1.94,1.9-3.61,2.34v1.03c1.74.46,3,1.26,3.77,2.41.77,1.15,1.21,2.69,1.32,4.64.07,2.02.09,3.85.07,5.5-.02,1.65-.05,3.49-.07,5.5-.12,3.23-.98,5.56-2.58,6.98-1.61,1.42-4.22,2.13-7.84,2.13h-10.49ZM679.49,190.48h5.37c1.63,0,2.77-.38,3.42-1.15.65-.77,1-2.06,1.05-3.87.05-1.97.06-3.79.05-5.45-.01-1.66-.03-3.48-.05-5.45-.02-1.47-.4-2.5-1.13-3.1-.73-.6-2.02-.9-3.85-.9h-4.85v19.92ZM679.49,215.69h5.02c1.83,0,3.11-.32,3.84-.96.72-.64,1.1-1.72,1.12-3.23.07-1.95.1-3.74.1-5.38s-.03-3.42-.1-5.35c-.02-2.02-.38-3.41-1.08-4.16-.7-.76-1.93-1.13-3.7-1.13h-5.19v20.23Z"/>
        <path class="cls-1" d="M712.45,221.16c-3.74,0-6.42-.73-8.05-2.2-1.63-1.47-2.46-3.85-2.51-7.15-.09-7.75-.14-15.45-.14-23.08s.05-15.33.14-23.08h5.47c-.07,5.16-.11,10.33-.14,15.52s-.02,10.36.02,15.53.05,10.36.05,15.56c0,1.49.38,2.55,1.15,3.18s2.1.95,4.01.95,3.19-.31,3.94-.95c.75-.63,1.12-1.69,1.12-3.18.05-5.2.08-10.39.1-15.56.02-5.17.03-10.35.03-15.53s-.05-10.36-.14-15.52h5.47c.09,7.75.14,15.45.15,23.08.01,7.64-.04,15.33-.15,23.08-.05,3.3-.88,5.69-2.49,7.15-1.62,1.47-4.29,2.2-8.03,2.2Z"/>
        <path class="cls-1" d="M740.55,221.16c-3.71,0-6.39-.73-8.03-2.2-1.64-1.47-2.52-3.9-2.63-7.29-.05-1.33-.08-2.56-.09-3.7-.01-1.14,0-2.28.03-3.44.03-1.16.07-2.41.12-3.77h5.26c-.09,2.04-.14,4-.16,5.86-.01,1.87.04,3.78.16,5.73.07,1.54.5,2.61,1.29,3.22.79.61,2.12.91,3.97.91s3.07-.3,3.84-.91c.77-.61,1.2-1.68,1.29-3.22.09-1.01.15-2.09.17-3.25.02-1.16.02-2.32-.02-3.47-.03-1.16-.09-2.22-.16-3.18-.05-1.86-.41-3.25-1.1-4.16-.69-.92-1.81-1.57-3.37-1.96l-3.85-.93c-1.88-.46-3.35-1.13-4.42-2.01-1.07-.88-1.83-2.08-2.29-3.58-.46-1.5-.72-3.4-.79-5.69-.02-1.47-.02-3.01,0-4.63.02-1.62.05-3.26.07-4.94.05-2.25.44-4.06,1.17-5.44.73-1.38,1.88-2.38,3.42-3.01,1.55-.63,3.56-.94,6.04-.94,3.6,0,6.2.73,7.79,2.18,1.59,1.46,2.45,3.88,2.56,7.28.05,1.44.06,3.02.05,4.73-.01,1.71-.04,3.5-.09,5.38h-5.3c.07-2.11.11-4.02.14-5.73.02-1.71,0-3.4-.07-5.07-.07-1.54-.49-2.61-1.25-3.22-.77-.61-2.07-.91-3.9-.91s-3.04.3-3.82.91c-.78.61-1.22,1.68-1.31,3.22-.11,1.77-.17,3.46-.16,5.09.01,1.63.06,3.33.16,5.09.05,2,.32,3.46.82,4.39.51.93,1.38,1.54,2.62,1.84l3.65.82c2.13.48,3.82,1.18,5.08,2.08,1.25.91,2.15,2.1,2.7,3.58.55,1.48.87,3.35.96,5.63.02.94.03,1.94.03,3.01s0,2.13-.02,3.2c-.01,1.07-.04,2.07-.09,3.01-.11,3.39-.98,5.82-2.6,7.29-1.62,1.47-4.25,2.2-7.9,2.2Z"/>
        <path class="cls-1" d="M768.72,221.2c-3.67,0-6.36-.73-8.07-2.2-1.71-1.47-2.59-3.9-2.63-7.29-.05-3.37-.08-6.57-.1-9.6-.02-3.03-.03-6-.03-8.91s.01-5.89.03-8.93c.02-3.04.06-6.23.1-9.58.05-3.35.92-5.77,2.63-7.26,1.71-1.49,4.38-2.23,8.03-2.23s6.33.76,8.05,2.27c1.72,1.51,2.65,3.92,2.79,7.22.05,1.19.08,2.33.09,3.42s0,2.17-.02,3.25c-.02,1.08-.07,2.22-.14,3.44h-5.43c.05-1.26.07-2.44.09-3.53.01-1.09.02-2.19.02-3.3s-.02-2.28-.07-3.49c-.05-1.74-.48-2.95-1.29-3.61-.81-.66-2.17-1-4.08-1s-3.21.33-3.99,1c-.78.67-1.19,1.87-1.24,3.61-.07,3.6-.13,6.91-.17,9.92s-.07,5.94-.07,8.77.02,5.75.07,8.75.1,6.33.17,9.98c.05,1.74.47,2.95,1.26,3.61.79.67,2.13,1,4.01,1,2,0,3.41-.33,4.25-1,.84-.66,1.29-1.87,1.36-3.61.04-1.05.07-2.09.09-3.11.01-1.02,0-2.17-.02-3.44-.02-1.27-.06-2.78-.1-4.52h5.43c.07,2.2.11,4.14.14,5.83.02,1.69,0,3.37-.07,5.04-.14,3.39-1.07,5.82-2.8,7.29s-4.49,2.2-8.27,2.2Z"/>
        <path class="cls-1" d="M787.13,220.68v-55.04h5.47v24.91h10.18v-24.91h5.43v55.04h-5.43v-25.25h-10.18v25.25h-5.47Z"/>
      </g>
    </g>
  </g>
</svg>
